<?xml version="1.0" standalone="no"?>
<!DOCTYPE svg PUBLIC "-//W3C//DTD SVG 20010904//EN"
 "http://www.w3.org/TR/2001/REC-SVG-20010904/DTD/svg10.dtd">
<svg version="1.0" xmlns="http://www.w3.org/2000/svg"
 width="1584.000000pt" height="396.000000pt" viewBox="0 0 1584.000000 396.000000"
 preserveAspectRatio="xMidYMid meet">

<g transform="translate(0.000000,396.000000) scale(0.100000,-0.100000)"
fill="#000000" stroke="none">
<path d="M0 3430 l0 -530 1980 0 1980 0 0 530 0 530 -1980 0 -1980 0 0 -530z
m1200 366 c0 -3 -4 -8 -10 -11 -5 -3 -10 -1 -10 4 0 6 5 11 10 11 6 0 10 -2
10 -4z m1030 -6 c0 -5 -2 -10 -4 -10 -3 0 -8 5 -11 10 -3 6 -1 10 4 10 6 0 11
-4 11 -10z m1040 6 c0 -3 -4 -8 -10 -11 -5 -3 -10 -1 -10 4 0 6 5 11 10 11 6
0 10 -2 10 -4z"/>
<path d="M3970 3425 l0 -535 -1985 0 -1985 0 0 -1445 0 -1445 5930 0 c3262 0
5930 2 5930 4 0 3 -176 138 -391 302 -324 245 -389 299 -377 309 7 8 330 255
718 550 388 295 705 539 705 544 0 4 -54 52 -120 108 -325 272 -589 609 -775
988 -166 339 -256 642 -297 1003 l-17 152 -3668 0 -3668 0 0 -535z m5510 365
c0 -5 -2 -10 -4 -10 -3 0 -8 5 -11 10 -3 6 -1 10 4 10 6 0 11 -4 11 -10z
m-1822 -1494 l-3 -124 -162 125 -163 125 163 124 162 123 3 -124 c1 -69 1
-181 0 -249z m-1399 348 c63 -18 136 -81 162 -139 28 -62 25 -158 -7 -223 -56
-112 -185 -167 -306 -130 -50 15 -123 79 -149 130 -77 151 15 334 184 368 60
11 58 11 116 -6z m881 -224 l0 -240 -240 0 -240 0 0 240 0 240 240 0 240 0 0
-240z m1225 -625 c0 -13 -8 -21 -22 -23 -17 -3 -23 2 -23 16 0 10 3 22 7 26
13 13 38 1 38 -19z m713 -3 c3 -18 -1 -22 -22 -22 -19 0 -26 5 -26 18 0 39 43
43 48 4z m-2670 -94 l3 -108 -31 0 -30 0 0 103 c0 57 3 107 7 111 4 4 16 6 28
4 18 -3 20 -11 23 -110z m92 2 l0 -110 -25 0 -25 0 0 110 0 110 25 0 25 0 0
-110z m2670 0 l0 -110 -25 0 -25 0 0 110 0 110 25 0 25 0 0 -110z m-3170 50
l0 -40 45 0 45 0 0 40 c0 36 3 40 25 40 l25 0 0 -100 0 -100 -25 0 c-22 0 -25
4 -25 40 l0 40 -45 0 -45 0 0 -40 c0 -36 -2 -40 -25 -40 l-25 0 0 100 0 100
25 0 c23 0 25 -4 25 -40z m2680 0 l0 -40 40 0 40 0 0 40 c0 36 3 40 25 40 l25
0 0 -100 0 -100 -25 0 c-22 0 -25 4 -25 40 l0 40 -40 0 -40 0 0 -40 c0 -38 -2
-40 -30 -40 l-30 0 0 100 0 100 30 0 c28 0 30 -2 30 -40z m-2390 -10 c19 -10
43 -67 34 -81 -3 -5 -28 -9 -55 -9 -34 0 -48 -4 -43 -11 4 -7 21 -9 40 -6 37
6 52 -6 34 -28 -18 -21 -83 -19 -111 4 -17 13 -23 29 -23 56 0 63 69 105 124
75z m369 -5 c75 -38 41 -145 -45 -145 -52 0 -84 31 -84 81 0 65 65 98 129 64z
m251 5 c0 -7 6 -7 19 0 28 14 56 12 71 -5 11 -13 15 -13 33 0 56 40 97 3 97
-87 0 -55 -1 -58 -24 -58 -23 0 -25 4 -28 52 -2 42 -7 54 -22 56 -25 5 -36
-14 -36 -65 0 -39 -2 -43 -24 -43 -23 0 -25 4 -28 52 -2 42 -7 54 -22 56 -25
5 -36 -14 -36 -65 0 -39 -2 -43 -25 -43 -25 0 -25 1 -25 80 0 79 0 80 25 80
14 0 25 -5 25 -10z m294 -22 c7 -18 16 -42 20 -53 6 -16 11 -11 24 30 13 38
22 51 40 53 12 2 22 -1 22 -7 0 -6 -16 -52 -36 -102 -39 -97 -60 -117 -108
-105 -23 6 -25 9 -15 27 6 12 17 18 25 15 8 -3 17 1 20 9 6 14 -1 34 -40 128
l-16 37 25 0 c20 0 29 -8 39 -32z m246 22 c0 -7 6 -7 19 0 59 31 91 1 91 -86
0 -62 -1 -64 -25 -64 -24 0 -25 3 -25 55 0 51 -2 55 -24 55 -28 0 -36 -16 -36
-71 0 -35 -3 -39 -24 -39 -23 0 -25 4 -28 68 -2 37 -2 73 0 80 5 14 52 16 52
2z m270 -10 c15 -15 20 -33 20 -79 l0 -59 -65 0 c-54 0 -67 3 -79 19 -23 33
-9 58 40 70 54 14 58 32 7 27 -29 -2 -38 1 -41 14 -6 32 88 38 118 8z m100 10
c0 -7 6 -7 19 0 28 14 56 12 71 -5 11 -13 15 -13 33 0 56 40 97 3 97 -87 0
-55 -1 -58 -24 -58 -23 0 -25 4 -28 52 -2 42 -7 54 -22 56 -25 5 -36 -14 -36
-65 0 -39 -2 -43 -24 -43 -23 0 -25 4 -28 52 -2 42 -7 54 -22 56 -25 5 -36
-14 -36 -65 0 -39 -2 -43 -25 -43 -25 0 -25 1 -25 80 0 79 0 80 25 80 14 0 25
-5 25 -10z m374 -11 c17 -14 26 -30 26 -50 0 -28 -1 -29 -51 -29 -32 0 -48 -4
-44 -10 4 -6 22 -9 40 -8 43 3 56 -9 31 -28 -31 -22 -83 -18 -111 11 -72 72
28 178 109 114z m176 -59 c0 -79 0 -80 -25 -80 -25 0 -25 1 -25 80 0 79 0 80
25 80 25 0 25 -1 25 -80z m156 67 c2 -2 2 -11 -2 -20 -4 -12 -15 -14 -42 -10
-42 7 -39 -1 10 -25 64 -32 43 -92 -31 -92 -44 0 -66 13 -58 34 5 13 12 14 32
6 57 -22 63 0 8 27 -71 34 -42 100 40 90 21 -3 41 -7 43 -10z m448 -3 c11 -11
16 -35 16 -79 l0 -63 -60 -1 c-40 0 -65 5 -75 15 -31 32 -10 69 45 78 26 4 38
10 34 17 -4 7 -21 9 -39 6 -24 -4 -35 -1 -39 9 -12 31 90 46 118 18z m106 -64
c0 -79 0 -80 -25 -80 -25 0 -25 1 -25 80 0 79 0 80 25 80 25 0 25 -1 25 -80z
m254 59 c17 -14 26 -30 26 -50 0 -28 -1 -29 -51 -29 -32 0 -48 -4 -44 -10 4
-6 22 -9 40 -8 43 3 56 -9 31 -28 -31 -22 -83 -18 -111 11 -72 72 28 178 109
114z m-8139 -9 c3 -5 1 -10 -4 -10 -6 0 -11 5 -11 10 0 6 2 10 4 10 3 0 8 -4
11 -10z m1035 0 c0 -5 -5 -10 -11 -10 -5 0 -7 5 -4 10 3 6 8 10 11 10 2 0 4
-4 4 -10z m1035 0 c3 -5 1 -10 -4 -10 -6 0 -11 5 -11 10 0 6 2 10 4 10 3 0 8
-4 11 -10z m2070 0 c3 -5 1 -10 -4 -10 -6 0 -11 5 -11 10 0 6 2 10 4 10 3 0 8
-4 11 -10z m4145 0 c0 -5 -5 -10 -11 -10 -5 0 -7 5 -4 10 3 6 8 10 11 10 2 0
4 -4 4 -10z m2070 0 c0 -5 -5 -10 -11 -10 -5 0 -7 5 -4 10 3 6 8 10 11 10 2 0
4 -4 4 -10z m-4793 -96 c8 -20 -13 -64 -30 -64 -13 0 -14 28 -2 68 6 17 24 15
32 -4z m2671 -13 c-2 -9 -11 -17 -21 -19 -21 -4 -35 27 -17 38 19 12 42 0 38
-19z m-2224 -129 c3 -5 -5 -8 -17 -8 -17 1 -23 -6 -25 -26 -3 -27 -1 -28 37
-28 32 0 41 4 42 18 1 16 2 16 6 0 3 -11 15 -19 31 -19 l27 -2 -28 -4 c-27 -4
-28 -5 -25 -66 3 -56 5 -62 28 -68 l25 -7 -26 -1 c-32 -1 -39 13 -39 85 l0 54
-40 0 -40 0 -2 -72 -2 -73 -3 73 c-3 59 -7 72 -21 73 -16 1 -16 2 1 6 10 3 17
14 17 27 0 35 39 62 54 38z m1055 -104 c-1 -62 -3 -105 -6 -95 -4 15 -6 16
-26 2 -48 -34 -117 1 -117 60 0 12 9 34 21 49 24 31 72 35 101 9 17 -15 18
-14 18 35 0 29 2 52 5 52 3 0 4 -51 4 -112z m-1354 80 c7 -7 1 -7 -15 -2 -56
18 -104 -1 -98 -40 2 -15 16 -25 49 -36 79 -26 97 -52 59 -90 -24 -24 -78 -26
-106 -4 -18 15 -18 15 3 5 32 -16 79 -13 97 5 29 28 16 48 -44 69 -24 8 -49
20 -57 26 -16 14 -17 53 0 67 27 22 90 22 112 0z m1922 -135 c-2 -32 -3 -8 -3
52 0 61 1 87 3 58 2 -29 2 -78 0 -110z m-2766 100 c11 -27 32 -72 45 -100 25
-57 25 -73 -1 -23 -15 28 -19 30 -76 30 -58 0 -61 -1 -72 -30 -6 -16 -15 -30
-18 -30 -4 0 13 45 38 100 26 55 50 100 54 100 5 0 18 -21 30 -47z m131 -15
c17 17 68 15 88 -3 15 -14 18 -14 30 0 7 8 27 15 46 15 43 0 56 -24 51 -98
l-3 -57 -2 61 c-2 67 -13 84 -53 84 -37 0 -50 -20 -59 -88 l-7 -57 -2 61 c-1
66 -12 84 -51 84 -39 0 -50 -18 -50 -82 0 -32 -4 -58 -10 -58 -6 0 -10 32 -10
78 0 52 3 72 10 62 7 -12 12 -12 22 -2z m446 0 c7 -7 12 -40 12 -77 0 -41 -4
-61 -9 -52 -6 9 -11 10 -15 2 -10 -16 -62 -13 -80 5 -35 34 -11 64 52 64 41 0
43 1 40 28 -3 25 -6 27 -51 26 -27 0 -42 3 -35 8 20 12 72 10 86 -4z m441 -14
c28 -35 26 -69 -4 -99 -33 -34 -77 -33 -104 1 -12 15 -21 37 -21 49 0 38 37
75 75 75 24 0 39 -7 54 -26z m280 -41 l24 -67 13 29 c8 17 21 48 30 70 l16 40
19 -40 c10 -22 23 -53 30 -70 l11 -30 25 68 c14 37 28 66 30 64 5 -6 -48 -147
-56 -147 -3 0 -17 30 -30 66 -13 36 -26 62 -29 59 -4 -3 -16 -31 -27 -60 -11
-30 -24 -55 -29 -55 -5 -1 -21 31 -36 69 -16 39 -25 71 -21 71 3 0 17 -30 30
-67z m335 45 c10 -14 16 -44 16 -78 0 -38 -3 -50 -10 -40 -7 12 -12 12 -22 2
-16 -16 -63 -15 -78 2 -6 8 -10 25 -8 38 3 20 10 23 51 26 46 3 48 4 45 30 -3
24 -7 27 -45 27 -22 0 -39 3 -36 8 2 4 19 7 38 7 24 0 39 -7 49 -22z m100 11
c4 6 15 11 24 10 12 0 11 -3 -5 -9 -24 -10 -31 -29 -36 -100 -2 -25 -4 -9 -5
35 -1 48 2 75 7 66 6 -9 11 -10 15 -2z m188 -6 c10 -9 18 -27 18 -40 0 -22 -3
-23 -65 -23 -65 0 -66 0 -54 -22 7 -13 17 -26 23 -30 17 -12 61 -9 74 4 8 8
12 8 12 1 0 -31 -74 -30 -105 2 -30 30 -32 64 -4 99 24 31 72 35 101 9z m451
-15 c11 -14 16 -31 13 -37 -4 -6 -34 -11 -67 -11 -63 0 -72 -9 -42 -42 18 -20
53 -23 86 -7 21 10 21 10 3 -5 -27 -22 -72 -20 -96 4 -29 29 -30 82 -2 113 24
27 80 19 105 -15z m136 -35 c31 67 54 96 27 35 -8 -18 -22 -52 -33 -75 -10
-24 -21 -43 -24 -43 -7 0 -69 133 -68 146 0 5 15 -22 34 -61 l33 -70 31 68z
m180 41 c36 -45 28 -54 -44 -54 -69 0 -79 -8 -48 -42 18 -21 54 -23 86 -6 20
10 21 10 8 -5 -36 -44 -121 -2 -121 60 0 68 78 99 119 47z m251 6 c45 -45 13
-130 -50 -130 -49 0 -76 36 -71 95 5 50 83 73 121 35z m99 4 c22 26 76 20 100
-10 28 -35 26 -69 -4 -99 -28 -29 -76 -33 -96 -8 -12 14 -15 11 -20 -33 -4
-33 -6 -14 -7 61 0 61 3 102 7 92 6 -17 8 -17 20 -3z m271 -4 c11 -11 20 -29
20 -40 0 -18 -7 -20 -65 -20 -69 0 -78 -7 -45 -40 23 -23 69 -26 90 -7 12 10
12 9 1 -5 -33 -44 -121 0 -121 60 0 62 77 95 120 52z m101 11 c11 6 25 8 32 5
8 -3 6 -5 -3 -5 -34 -2 -45 -21 -51 -83 l-6 -63 -1 80 c0 44 2 74 5 68 3 -10
10 -10 24 -2z m-8271 -725 c0 -3 -4 -8 -10 -11 -5 -3 -10 -1 -10 4 0 6 5 11
10 11 6 0 10 -2 10 -4z m1030 -6 c0 -5 -2 -10 -4 -10 -3 0 -8 5 -11 10 -3 6
-1 10 4 10 6 0 11 -4 11 -10z m1040 6 c0 -3 -4 -8 -10 -11 -5 -3 -10 -1 -10 4
0 6 5 11 10 11 6 0 10 -2 10 -4z m2070 0 c0 -3 -4 -8 -10 -11 -5 -3 -10 -1
-10 4 0 6 5 11 10 11 6 0 10 -2 10 -4z m2070 -6 c0 -5 -4 -10 -10 -10 -5 0
-10 5 -10 10 0 6 5 10 10 10 6 0 10 -4 10 -10z m2070 0 c0 -5 -2 -10 -4 -10
-3 0 -8 5 -11 10 -3 6 -1 10 4 10 6 0 11 -4 11 -10z"/>
<path d="M6227 1703 c-14 -13 -6 -23 18 -23 16 0 25 6 25 15 0 15 -31 21 -43
8z"/>
<path d="M6590 1696 c-18 -22 -9 -60 16 -64 31 -4 50 23 36 53 -13 28 -34 32
-52 11z"/>
<path d="M7635 1650 c-11 -18 13 -36 31 -25 9 6 16 15 17 20 3 14 -40 18 -48
5z"/>
<path d="M8117 1696 c-5 -12 1 -16 24 -16 20 0 29 4 27 13 -7 18 -45 20 -51 3z"/>
<path d="M8894 1649 c-9 -15 12 -33 30 -26 9 4 16 13 16 22 0 17 -35 21 -46 4z"/>
<path d="M9257 1696 c-5 -12 1 -16 24 -16 20 0 29 4 27 13 -7 18 -45 20 -51 3z"/>
<path d="M8136 1388 c-22 -31 -20 -64 4 -88 40 -40 110 -11 110 45 0 57 -83
88 -114 43z"/>
<path d="M6004 1403 c-11 -27 -20 -51 -22 -55 -2 -5 19 -8 47 -8 28 0 51 4 51
10 0 15 -43 100 -51 100 -3 0 -15 -21 -25 -47z"/>
<path d="M6546 1324 c-9 -23 12 -44 43 -44 31 0 51 16 51 42 0 15 -8 18 -44
18 -31 0 -46 -5 -50 -16z"/>
<path d="M6976 1388 c-22 -31 -20 -64 4 -88 40 -40 110 -11 110 45 0 57 -83
88 -114 43z"/>
<path d="M7604 1325 c-10 -26 4 -45 34 -45 32 0 52 16 52 42 0 14 -8 18 -40
18 -27 0 -43 -5 -46 -15z"/>
<path d="M7886 1388 c-22 -31 -12 -38 50 -38 40 0 54 4 54 14 0 45 -77 62
-104 24z"/>
<path d="M8336 1394 c-32 -32 -20 -44 44 -44 62 0 68 8 37 48 -13 17 -62 15
-81 -4z"/>
<path d="M8657 1392 c-30 -33 -21 -42 43 -42 33 0 60 3 60 8 0 4 -7 18 -16 30
-19 27 -64 29 -87 4z"/>
<path d="M8907 1392 c-22 -25 -21 -75 1 -95 42 -38 102 -8 102 50 0 55 -67 85
-103 45z"/>
<path d="M9096 1388 c-22 -31 -20 -64 4 -88 40 -40 110 -11 110 45 0 57 -83
88 -114 43z"/>
<path d="M9276 1388 c-9 -12 -16 -26 -16 -30 0 -5 27 -8 60 -8 65 0 76 12 42
43 -26 24 -68 21 -86 -5z"/>
<path d="M11324 3918 c3 -24 8 -70 11 -103 66 -660 388 -1326 876 -1814 93
-93 297 -271 319 -279 5 -2 417 308 917 688 l908 692 3 -998 2 -997 158 5 c93
3 129 2 87 -2 -38 -4 -109 -8 -157 -9 l-88 -1 0 -550 0 -550 740 0 740 0 0
740 0 740 -98 -49 c-214 -108 -448 -194 -667 -247 -125 -30 -261 -54 -295 -53
-14 0 22 9 80 19 302 51 600 149 882 291 l98 49 0 1235 0 1235 -2261 0 -2260
0 5 -42z m226 -128 c0 -5 -2 -10 -4 -10 -3 0 -8 5 -11 10 -3 6 -1 10 4 10 6 0
11 -4 11 -10z m1040 6 c0 -3 -4 -8 -10 -11 -5 -3 -10 -1 -10 4 0 6 5 11 10 11
6 0 10 -2 10 -4z m1030 -6 c0 -5 -2 -10 -4 -10 -3 0 -8 5 -11 10 -3 6 -1 10 4
10 6 0 11 -4 11 -10z m1118 -2667 c-10 -2 -28 -2 -40 0 -13 2 -5 4 17 4 22 1
32 -1 23 -4z"/>
<path d="M13455 2396 c-478 -365 -869 -669 -867 -675 1 -7 -4 -11 -12 -9 -17
3 -1465 -1091 -1465 -1107 0 -5 177 -144 392 -307 l392 -298 1228 0 1227 0 0
550 0 550 -82 1 c-46 1 -114 5 -153 9 -42 4 -8 5 84 2 l154 -5 -6 408 c-4 225
-7 664 -7 977 0 312 -3 568 -7 567 -5 0 -399 -299 -878 -663z m165 -676 c0 -5
-5 -10 -11 -10 -5 0 -7 5 -4 10 3 6 8 10 11 10 2 0 4 -4 4 -10z m-992 -69
c147 -106 373 -230 567 -310 97 -41 346 -124 401 -135 16 -3 58 -13 94 -22 36
-9 112 -24 170 -34 58 -10 94 -19 80 -19 -34 -1 -170 23 -294 53 -286 69 -575
186 -832 337 -91 53 -264 168 -264 175 0 9 14 1 78 -45z m1400 -528 c-10 -2
-28 -2 -40 0 -13 2 -5 4 17 4 22 1 32 -1 23 -4z m-2478 -443 c0 -5 -2 -10 -4
-10 -3 0 -8 5 -11 10 -3 6 -1 10 4 10 6 0 11 -4 11 -10z m1040 6 c0 -3 -4 -8
-10 -11 -5 -3 -10 -1 -10 4 0 6 5 11 10 11 6 0 10 -2 10 -4z m1030 -6 c0 -5
-2 -10 -4 -10 -3 0 -8 5 -11 10 -3 6 -1 10 4 10 6 0 11 -4 11 -10z"/>
</g>
</svg>
